<svg xmlns="http://www.w3.org/2000/svg" aria-hidden="true" style="position:absolute;width:0;height:0;overflow:hidden"><defs><symbol id="icon-arrow-left" viewBox="0 0 24 24" fill="none">
  <path d="M18.3002 11.5575L4.81608 11.5575M4.81608 11.5575L11.5581 18.2995M4.81608 11.5575L11.5581 4.81543" stroke-width="2" stroke-linecap="round" stroke-linejoin="round" /></symbol><symbol id="icon-arrow-right" viewBox="0 0 24 24" fill="none">
  <path d="M4.81543 11.5581L18.2995 11.5581M18.2995 11.5581L11.5575 4.81606M18.2995 11.5581L11.5575 18.3001" stroke-width="2" stroke-linecap="round" stroke-linejoin="round" />
</symbol><symbol id="icon-arrow-down" viewBox="0 0 32 32"><path stroke-linecap="round" stroke-linejoin="round" stroke-width="2.667" d="m16 26.667 8-8m-8 8-8-8m8 8v-14m0-7.334v3.333"/></symbol><symbol id="icon-chart" viewBox="0 0 32 32"><path d="M6.667 4v21.333H28V28H4V4zm10.666 2.667c1.826 0 3.117 1.051 3.958 2.853l.089.196.165.393.077.201.146.419.07.221.137.474.136.527.139.594.147.673.401 1.957.154.702.15.637.148.574q.07.258.147.515l.148.457c.471 1.358.969 1.888 1.674 1.937l.113.004v2.667c-1.826 0-3.117-1.051-3.958-2.853l-.089-.196-.165-.393-.077-.201-.146-.419-.07-.221-.137-.474-.136-.527-.139-.594-.147-.673-.402-1.957-.153-.702-.15-.637-.148-.575a22 22 0 0 0-.147-.514l-.148-.457c-.496-1.43-1.021-1.941-1.787-1.941s-1.291.511-1.787 1.941l-.148.457-.074.25-.148.544-.074.295-.15.637-.154.702-.401 1.957-.147.673-.139.594-.136.527-.137.474-.07.221-.146.419-.077.201-.165.393-.089.196c-.797 1.707-1.997 2.74-3.674 2.844l-.284.009v-2.667c.765 0 1.291-.511 1.787-1.941l.148-.457.074-.25.148-.544.074-.295.15-.637.154-.702.401-1.957.147-.673.139-.594.136-.527.137-.474q.034-.113.07-.221l.146-.419.077-.201.165-.393.089-.196c.841-1.802 2.132-2.853 3.958-2.853"/></symbol><symbol id="icon-close" viewBox="0 0 32 32"><path stroke-linecap="round" stroke-width="1.778" d="M26.667 26.667 5.334 5.334m21.333-.001L5.334 26.666"/></symbol><symbol id="icon-menu" viewBox="0 0 32 32"><path stroke-linecap="round" stroke-linejoin="round" stroke-width="2.667" d="M5.333 6.667h21.333M5.333 16h21.333M5.333 25.333h21.333"/></symbol><symbol id="icon-navigation" viewBox="0 0 32 32"><path stroke-linecap="round" stroke-linejoin="round" stroke-width="2.783" d="m6.667 14.667 18.667-8-8 18.667-2.667-8z"/></symbol><symbol id="icon-pulse" viewBox="0 0 32 32"><path d="M10.073 5.669a1 1 0 0 1 .914.832l2.4 14.309 2.985-10.42a1 1 0 0 1 1.564-.522 1 1 0 0 1 .359.523l2.024 7.085 1.161-1.983a1 1 0 0 1 .864-.495h2.476a3.334 3.334 0 1 1 0 2h-1.904l-2.053 3.507a.999.999 0 0 1-1.824-.231l-1.707-5.973-3.24 11.307a.999.999 0 0 1-1.947-.109L9.692 10.88l-1.751 5.427a1.005 1.005 0 0 1-.952.694H2.666a.997.997 0 0 1-1-1 .997.997 0 0 1 1-1h3.595l2.787-8.64a1 1 0 0 1 1.025-.691z"/></symbol><symbol id="icon-speed" viewBox="0 0 23 23" fill="none">
  <mask id="mask0_23_360" style="mask-type:luminance" maskUnits="userSpaceOnUse" x="0" y="0" width="23" height="23">
    <path d="M16.3026 3.2056C14.8439 2.35873 13.1867 1.91395 11.5 1.91664C6.20708 1.91664 1.91663 6.2071 1.91663 11.5C1.91663 16.7928 6.20708 21.0833 11.5 21.0833C16.7928 21.0833 21.0833 16.7928 21.0833 11.5C21.0833 9.76203 20.6204 8.13143 19.8116 6.72651" stroke="white" stroke-width="2" stroke-linecap="round" stroke-linejoin="round" />
    <path d="M15.3093 7.69055C15.3093 7.69055 13.6859 12.0246 12.9374 12.7731C12.578 13.1325 12.0905 13.3345 11.5821 13.3345C11.0738 13.3345 10.5863 13.1325 10.2268 12.7731C9.86734 12.4136 9.66541 11.9261 9.66541 11.4178C9.66541 10.9094 9.86734 10.4219 10.2268 10.0624C10.9753 9.31397 15.3093 7.69055 15.3093 7.69055Z" fill="#555555" stroke="white" stroke-width="2" stroke-linejoin="round" />
  </mask>
  <g mask="url(#mask0_23_360)">
    <path d="M0 0H23V23H0V0Z" fill="black" />
  </g>
</symbol></defs></svg>