<svg xmlns="http://www.w3.org/2000/svg" aria-hidden="true" style="position:absolute;width:0;height:0;overflow:hidden"><defs><symbol id="icon-arrow-left" viewBox="0 0 32 32"><path stroke-linecap="round" stroke-linejoin="round" stroke-width="1.454" d="M10.667 16 16 10.667M10.667 16h10.667m-10.667 0L16 21.333M16 4a12 12 0 1 1 .002 24.003A12 12 0 0 1 16 3.998z"/></symbol><symbol id="icon-arrow-right" viewBox="0 0 31 32"><path stroke-linecap="round" stroke-linejoin="round" stroke-width="1.422" d="m20.859 16.317-5.215-5.215m5.215 5.215h-10.43m10.43 0-5.215 5.215m0-16.949a11.72 11.72 0 0 0-8.297 3.436 11.75 11.75 0 0 0-2.543 12.787 11.74 11.74 0 0 0 6.35 6.351A11.733 11.733 0 0 0 23.941 8.019a11.73 11.73 0 0 0-8.297-3.437z"/></symbol><symbol id="icon-arrow-down" viewBox="0 0 32 32"><path stroke-linecap="round" stroke-linejoin="round" stroke-width="2.667" d="m16 26.667 8-8m-8 8-8-8m8 8v-14m0-7.334v3.333"/></symbol><symbol id="icon-chart" viewBox="0 0 32 32"><path d="M6.667 4v21.333H28V28H4V4zm10.666 2.667c1.826 0 3.117 1.051 3.958 2.853l.089.196.165.393.077.201.146.419.07.221.137.474.136.527.139.594.147.673.401 1.957.154.702.15.637.148.574q.07.258.147.515l.148.457c.471 1.358.969 1.888 1.674 1.937l.113.004v2.667c-1.826 0-3.117-1.051-3.958-2.853l-.089-.196-.165-.393-.077-.201-.146-.419-.07-.221-.137-.474-.136-.527-.139-.594-.147-.673-.402-1.957-.153-.702-.15-.637-.148-.575a22 22 0 0 0-.147-.514l-.148-.457c-.496-1.43-1.021-1.941-1.787-1.941s-1.291.511-1.787 1.941l-.148.457-.074.25-.148.544-.074.295-.15.637-.154.702-.401 1.957-.147.673-.139.594-.136.527-.137.474-.07.221-.146.419-.077.201-.165.393-.089.196c-.797 1.707-1.997 2.74-3.674 2.844l-.284.009v-2.667c.765 0 1.291-.511 1.787-1.941l.148-.457.074-.25.148-.544.074-.295.15-.637.154-.702.401-1.957.147-.673.139-.594.136-.527.137-.474q.034-.113.07-.221l.146-.419.077-.201.165-.393.089-.196c.841-1.802 2.132-2.853 3.958-2.853"/></symbol><symbol id="icon-close" viewBox="0 0 32 32"><path stroke-linecap="round" stroke-width="1.778" d="M26.667 26.667 5.334 5.334m21.333-.001L5.334 26.666"/></symbol><symbol id="icon-menu" viewBox="0 0 32 32"><path stroke-linecap="round" stroke-linejoin="round" stroke-width="2.667" d="M5.333 6.667h21.333M5.333 16h21.333M5.333 25.333h21.333"/></symbol><symbol id="icon-navigation" viewBox="0 0 32 32"><path stroke-linecap="round" stroke-linejoin="round" stroke-width="2.783" d="m6.667 14.667 18.667-8-8 18.667-2.667-8z"/></symbol><symbol id="icon-pulse" viewBox="0 0 32 32"><path d="M10.073 5.669a1 1 0 0 1 .914.832l2.4 14.309 2.985-10.42a1 1 0 0 1 1.564-.522 1 1 0 0 1 .359.523l2.024 7.085 1.161-1.983a1 1 0 0 1 .864-.495h2.476a3.334 3.334 0 1 1 0 2h-1.904l-2.053 3.507a.999.999 0 0 1-1.824-.231l-1.707-5.973-3.24 11.307a.999.999 0 0 1-1.947-.109L9.692 10.88l-1.751 5.427a1.005 1.005 0 0 1-.952.694H2.666a.997.997 0 0 1-1-1 .997.997 0 0 1 1-1h3.595l2.787-8.64a1 1 0 0 1 1.025-.691z"/></symbol></defs></svg>